<?xml version="1.0" standalone="no"?>
<!DOCTYPE svg PUBLIC "-//W3C//DTD SVG 20010904//EN"
 "http://www.w3.org/TR/2001/REC-SVG-20010904/DTD/svg10.dtd">
<svg version="1.0" xmlns="http://www.w3.org/2000/svg"
 width="16.000000pt" height="16.000000pt" viewBox="0 0 16.000000 16.000000"
 preserveAspectRatio="xMidYMid meet">

<g transform="translate(0.000000,16.000000) scale(0.100000,-0.100000)"
fill="#000000" stroke="none">
<path d="M22 115 c-12 -25 -22 -48 -22 -50 0 -3 14 -5 31 -5 24 0 30 -4 25
-15 -3 -8 -9 -23 -12 -32 -4 -10 19 7 50 37 42 40 52 56 41 58 -14 3 -13 7 6
28 l22 24 -59 0 -60 0 -22 -45z m80 2 c-12 -13 -20 -26 -17 -29 3 -3 -6 -4
-20 -4 -26 2 -29 8 -19 39 4 12 16 17 41 17 l36 0 -21 -23z"/>
</g>
</svg>
